<?xml version="1.0" encoding="utf-8"?>
<!-- Generator: Adobe Illustrator 15.0.0, SVG Export Plug-In . SVG Version: 6.00 Build 0)  -->
<!DOCTYPE svg PUBLIC "-//W3C//DTD SVG 1.1//EN" "http://www.w3.org/Graphics/SVG/1.1/DTD/svg11.dtd">
<svg version="1.1" id="レイヤー_1" xmlns="http://www.w3.org/2000/svg" xmlns:xlink="http://www.w3.org/1999/xlink" x="0px"
	 y="0px" width="200px" height="200px" viewBox="0 0 200 200" enable-background="new 0 0 200 200" xml:space="preserve">
<linearGradient id="SVGID_1_" gradientUnits="userSpaceOnUse" x1="14056.623" y1="-18211.4434" x2="7001.0894" y2="-11155.9102" gradientTransform="matrix(0.0283 0 0 -0.0283 -198.4559 -316.2301)">
	<stop  offset="0" style="stop-color:#0087FF"/>
	<stop  offset="1" style="stop-color:#4FC0E8"/>
</linearGradient>
<polygon fill="url(#SVGID_1_)" points="0,0 200,0 200,200 0,200 "/>
<path fill="#FFFFFF" d="M79.391,156.391c1.8,0,3.233,1.469,3.233,3.27c0,1.762-1.434,3.232-3.233,3.232H40.376
	c-1.8,0-3.233-1.471-3.233-3.232c0-9.295,0.515-16.422,2.388-22.227H22.229c-1.763,0-3.232-1.469-3.232-3.232
	c0-8.596,0.881-13.812,5.033-17.963c3.563-3.564,9.258-5.842,18.81-8.488c-3.233-2.387-5.658-6.648-6.796-11.423
	c-0.809-3.307-1.029-6.871-0.588-10.287c0.477-3.526,1.726-6.943,3.857-9.625c2.829-3.6,7.127-5.914,13.152-5.914
	c6.024,0,10.323,2.314,13.151,5.914c2.131,2.682,3.38,6.099,3.857,9.625c0.478,3.417,0.221,6.98-0.588,10.287
	c-1.138,4.775-3.526,9.037-6.759,11.423c2.607,0.699,4.959,1.434,7.016,2.131c2.388,0.809,4.408,1.619,6.172,2.5
	c2.939-0.92,6.135-1.801,9.552-2.756v-3.381c-6.76-3.746-11.867-12.269-14.217-22.041c-1.506-6.135-1.947-12.784-1.103-19.14
	c0.882-6.466,3.123-12.6,6.98-17.487c5.033-6.318,12.674-10.47,23.475-10.47s18.442,4.151,23.475,10.47
	c3.857,4.887,6.098,11.021,6.979,17.487c0.845,6.355,0.404,13.005-1.103,19.14c-2.352,9.772-7.457,18.295-14.216,22.041v3.381
	c3.416,0.955,6.612,1.836,9.551,2.756c1.764-0.881,3.784-1.691,6.172-2.5c2.058-0.697,4.409-1.395,7.017-2.131
	c-3.232-2.387-5.62-6.648-6.759-11.423c-0.809-3.307-1.065-6.871-0.589-10.287c0.478-3.526,1.728-6.943,3.858-9.625
	c2.828-3.6,7.126-5.914,13.15-5.914c6.025,0,10.323,2.314,13.152,5.914c2.131,2.682,3.379,6.099,3.857,9.625
	c0.44,3.417,0.221,6.98-0.587,10.287c-1.14,4.775-3.564,9.037-6.797,11.423c9.551,2.646,15.246,4.924,18.81,8.488
	c4.151,4.15,5.032,9.367,5.032,17.963c0,1.764-1.47,3.232-3.232,3.232h-17.304c1.873,5.805,2.388,12.932,2.388,22.227
	c0,1.762-1.433,3.232-3.232,3.232h-39.014c-1.8,0-3.232-1.471-3.232-3.232c0-1.801,1.433-3.27,3.232-3.27h35.744
	c-0.146-8.928-0.917-15.355-3.416-20.279c-0.185-0.256-0.331-0.551-0.441-0.844c-0.844-1.545-1.91-2.977-3.232-4.264
	c-6.135-6.133-17.634-10.248-38.06-15.723c-1.469-0.293-2.571-1.615-2.571-3.16v-7.934c0-1.285,0.809-2.498,2.057-3.014
	c5.769-2.239,10.25-9.66,12.38-18.477c1.324-5.4,1.728-11.242,0.957-16.752c-0.698-5.363-2.498-10.433-5.622-14.327
	c-3.857-4.849-9.809-8.008-18.404-8.008c-8.597,0-14.547,3.159-18.405,8.008c-3.123,3.895-4.922,8.964-5.621,14.327
	c-0.771,5.511-0.367,11.352,0.955,16.752c2.094,8.743,6.54,16.09,12.197,18.404c1.286,0.441,2.241,1.654,2.241,3.086v7.934
	c0,1.436-0.955,2.719-2.424,3.125c-20.536,5.51-32.071,9.588-38.206,15.758c-1.323,1.287-2.388,2.719-3.233,4.264
	c-0.11,0.293-0.257,0.588-0.44,0.807c-2.499,4.961-3.27,11.389-3.417,20.316H79.391z M42.507,130.932
	c1.028-1.58,2.204-3.086,3.637-4.482c4.335-4.334,10.507-7.678,19.507-10.91c-2.315-0.734-4.959-1.506-8.009-2.312
	c-1.433-0.406-2.388-1.691-2.388-3.125v-4.004c0-1.433,0.918-2.645,2.204-3.086c2.351-1.027,4.225-4.297,5.143-8.192
	c0.625-2.571,0.809-5.326,0.478-7.898c-0.331-2.461-1.139-4.739-2.535-6.503c-1.653-2.094-4.262-3.453-8.082-3.453
	c-3.784,0-6.43,1.359-8.083,3.453c-1.396,1.764-2.204,4.042-2.535,6.503c-0.331,2.572-0.147,5.327,0.478,7.898
	c0.955,4.004,2.902,7.311,5.29,8.266c1.286,0.479,2.057,1.69,2.057,3.012v4.004c0,1.545-1.102,2.865-2.571,3.16
	c-10.029,2.682-15.613,4.666-18.479,7.531c-2.167,2.168-2.902,5.254-3.086,10.139H42.507z M134.349,115.539
	c9.001,3.232,15.172,6.576,19.507,10.91c1.433,1.396,2.608,2.902,3.638,4.482h16.972c-0.184-4.885-0.918-7.971-3.086-10.139
	c-2.865-2.865-8.449-4.85-18.479-7.531c-1.468-0.295-2.571-1.615-2.571-3.16v-4.004c0-1.321,0.772-2.533,2.058-3.012
	c2.389-0.955,4.336-4.262,5.29-8.266c0.626-2.534,0.808-5.326,0.479-7.898c-0.331-2.461-1.139-4.739-2.536-6.503
	c-1.652-2.094-4.298-3.453-8.082-3.453c-3.819,0-6.428,1.359-8.082,3.453c-1.395,1.764-2.203,4.042-2.534,6.503
	c-0.331,2.572-0.146,5.327,0.478,7.898c0.919,3.895,2.792,7.165,5.144,8.192c1.286,0.441,2.203,1.653,2.203,3.086v4.004
	c0,1.434-0.954,2.719-2.387,3.125C139.308,114.033,136.662,114.805,134.349,115.539z M77.15,146.582v-13.078
	c0-1.801,1.47-3.27,3.232-3.27h9.846v-9.809c0-1.764,1.433-3.234,3.232-3.234h13.078c1.801,0,3.233,1.471,3.233,3.234v9.809h9.846
	c1.764,0,3.232,1.469,3.232,3.27v13.078c0,1.799-1.469,3.232-3.232,3.232h-9.846v9.809c0,1.799-1.433,3.27-3.233,3.27H93.46
	c-1.799,0-3.232-1.471-3.232-3.27v-9.809h-9.846C78.62,149.814,77.15,148.381,77.15,146.582z M83.652,136.736v6.613h9.808
	c1.8,0,3.233,1.434,3.233,3.232v9.809h6.612v-9.809c0-1.799,1.433-3.232,3.232-3.232h9.81v-6.613h-9.81
	c-1.8,0-3.232-1.469-3.232-3.232v-9.846h-6.612v9.846c0,1.764-1.433,3.232-3.233,3.232H83.652z"/>
</svg>
